<svg xmlns="http://www.w3.org/2000/svg" xmlns:xlink="http://www.w3.org/1999/xlink" width="1080" zoomAndPan="magnify" viewBox="0 0 810 1439.999935" height="1920" preserveAspectRatio="xMidYMid meet" version="1.0"><defs><clipPath id="id1"><path d="M 119.453125 655.519531 L 690.203125 655.519531 L 690.203125 1255.519531 L 119.453125 1255.519531 Z M 119.453125 655.519531 " clip-rule="nonzero"/></clipPath></defs><g clip-path="url(#id1)"><path fill="rgb(38.819885%, 29.019165%, 78.819275%)" d="M 690.125 1037.917969 C 690.125 1107.859375 618.003906 1164.5625 529.039062 1164.5625 C 527.386719 1164.5625 525.742188 1164.542969 524.101562 1164.5 C 527.25 1168.214844 529.039062 1172.460938 529.039062 1176.976562 C 529.039062 1191.5 510.5625 1203.273438 487.769531 1203.273438 C 472.28125 1203.273438 458.789062 1197.835938 451.730469 1189.796875 C 417.957031 1229.738281 364.539062 1255.527344 304.425781 1255.527344 C 278.929688 1255.527344 254.632812 1250.894531 232.535156 1242.496094 C 171.679688 1219.390625 127.453125 1167.828125 120.480469 1106.363281 C 119.839844 1100.746094 119.515625 1095.054688 119.515625 1089.289062 C 119.515625 1022.5 163.328125 964.90625 226.527344 938.480469 C 191.113281 909.785156 169.804688 872.882812 169.804688 832.617188 C 169.804688 741.21875 279.570312 667.128906 414.976562 667.128906 C 419.847656 667.128906 424.683594 667.226562 429.484375 667.421875 C 448.742188 660.125 477.082031 655.515625 508.6875 655.515625 C 566.695312 655.515625 613.71875 671.042969 613.71875 690.191406 C 613.71875 699.308594 603.050781 707.605469 585.613281 713.796875 C 631.574219 743.875 660.144531 785.996094 660.144531 832.617188 C 660.144531 869 642.75 902.636719 613.269531 929.953125 C 659.378906 952.230469 690.125 992.25 690.125 1037.917969 " fill-opacity="1" fill-rule="nonzero"/></g><path fill="rgb(99.609375%, 59.21936%, 21.179199%)" d="M 392.1875 1166.675781 L 347.144531 1236.925781 L 291.738281 1217.613281 L 310.546875 1150.6875 L 392.1875 1166.675781 " fill-opacity="1" fill-rule="nonzero"/><path fill="rgb(100%, 64.309692%, 18.429565%)" d="M 329.839844 1017.246094 L 248.25 999.90625 L 223.015625 1052.90625 L 283.800781 1086.582031 L 329.839844 1017.246094 " fill-opacity="1" fill-rule="nonzero"/><path fill="rgb(100%, 35.688782%, 25.489807%)" d="M 626.015625 1005.359375 C 632.574219 988.722656 633.617188 977.964844 633.617188 977.964844 C 633.617188 977.964844 625.207031 972.242188 609.515625 966.042969 C 610.285156 980.417969 616.582031 994.207031 626.015625 1005.359375 " fill-opacity="1" fill-rule="nonzero"/><path fill="rgb(100%, 79.998779%, 27.449036%)" d="M 626.015625 1005.359375 C 616.582031 994.207031 610.285156 980.417969 609.515625 966.042969 C 574.445312 952.1875 502.964844 935.945312 407.457031 975.847656 C 339.550781 1004.21875 270.871094 1050.683594 246.304688 1087.753906 L 283.277344 1176.363281 C 326.894531 1184.949219 408.203125 1168.746094 476.109375 1140.375 C 575.597656 1098.808594 612.511719 1039.613281 626.015625 1005.359375 " fill-opacity="1" fill-rule="nonzero"/><path fill="rgb(100%, 64.309692%, 18.429565%)" d="M 625.109375 1007.605469 C 606.734375 1042.210938 567.347656 1089.828125 483.402344 1124.894531 C 415.496094 1153.265625 334.1875 1169.46875 290.574219 1160.886719 L 255.199219 1076.113281 C 251.8125 1080.070312 248.816406 1083.964844 246.304688 1087.753906 L 283.277344 1176.363281 C 326.894531 1184.949219 408.203125 1168.746094 476.109375 1140.375 C 573.457031 1099.707031 610.890625 1042.160156 625.109375 1007.605469 " fill-opacity="1" fill-rule="nonzero"/><path fill="rgb(24.708557%, 19.60907%, 47.839355%)" d="M 475.789062 1094.308594 C 452.125 1104.191406 424.945312 1093.015625 415.0625 1069.335938 C 413.613281 1065.863281 412.628906 1062.328125 412.058594 1058.769531 C 411.480469 1055.179688 411.332031 1051.574219 411.601562 1048.019531 C 411.710938 1046.480469 411.90625 1044.945312 412.164062 1043.445312 C 413.816406 1034.074219 418.320312 1025.332031 425.140625 1018.535156 C 429.289062 1014.394531 434.28125 1010.984375 440.019531 1008.585938 C 463.671875 998.703125 490.855469 1009.882812 500.730469 1033.546875 C 502.175781 1037.019531 503.167969 1040.570312 503.730469 1044.113281 C 505.289062 1053.730469 503.71875 1063.429688 499.582031 1071.902344 C 498.914062 1073.28125 498.152344 1074.628906 497.335938 1075.9375 C 495.464844 1078.980469 493.226562 1081.8125 490.65625 1084.363281 C 486.523438 1088.496094 481.515625 1091.914062 475.789062 1094.308594 " fill-opacity="1" fill-rule="nonzero"/><path fill="rgb(31.369019%, 23.919678%, 67.83905%)" d="M 499.582031 1071.902344 L 412.164062 1043.445312 C 413.816406 1034.074219 418.320312 1025.332031 425.140625 1018.535156 L 503.730469 1044.113281 C 505.289062 1053.730469 503.71875 1063.429688 499.582031 1071.902344 " fill-opacity="1" fill-rule="nonzero"/><path fill="rgb(31.369019%, 23.919678%, 67.83905%)" d="M 490.65625 1084.363281 L 412.058594 1058.769531 C 411.480469 1055.179688 411.332031 1051.574219 411.601562 1048.019531 L 497.335938 1075.9375 C 495.464844 1078.980469 493.226562 1081.8125 490.65625 1084.363281 " fill-opacity="1" fill-rule="nonzero"/><path fill="rgb(100%, 88.238525%, 58.039856%)" d="M 383.464844 1001.777344 C 383.464844 1001.777344 464.390625 954.566406 567.132812 971.140625 C 567.132812 971.140625 420.554688 988.804688 383.074219 1028.976562 L 383.464844 1001.777344 " fill-opacity="1" fill-rule="nonzero"/><path fill="rgb(100%, 35.688782%, 25.489807%)" d="M 253.773438 1116.355469 L 265.695312 1144.929688 L 206.429688 1152.914062 Z M 253.773438 1116.355469 " fill-opacity="1" fill-rule="nonzero"/><path fill="rgb(89.408875%, 87.838745%, 100%)" d="M 218.242188 745.332031 L 381.003906 745.332031 L 322.160156 736.144531 C 322.160156 736.144531 321.832031 718.433594 302.492188 725.648438 C 302.492188 725.648438 300.910156 712.199219 285.964844 711.542969 C 271.019531 710.886719 272.003906 723.679688 272.003906 723.679688 C 272.003906 723.679688 252.992188 711.214844 241.847656 723.351562 C 230.699219 735.488281 248.402344 738.769531 248.402344 738.769531 L 218.242188 745.332031 " fill-opacity="1" fill-rule="nonzero"/><path fill="rgb(89.408875%, 87.838745%, 100%)" d="M 633.617188 829.058594 L 552.230469 829.058594 L 581.660156 824.464844 C 581.660156 824.464844 581.820312 815.609375 591.492188 819.21875 C 591.492188 819.21875 592.28125 812.492188 599.753906 812.164062 C 607.226562 811.835938 606.734375 818.230469 606.734375 818.230469 C 606.734375 818.230469 616.242188 812 621.816406 818.070312 C 627.386719 824.136719 618.535156 825.777344 618.535156 825.777344 L 633.617188 829.058594 " fill-opacity="1" fill-rule="nonzero"/><path fill="rgb(89.408875%, 87.838745%, 100%)" d="M 243.347656 1221.246094 C 243.347656 1229.667969 239.175781 1237.242188 232.53125 1242.496094 C 171.679688 1219.390625 127.453125 1167.828125 120.480469 1106.363281 C 123.230469 1105.203125 126.246094 1104.5625 129.414062 1104.5625 C 141.722656 1104.5625 151.773438 1114.214844 152.425781 1126.371094 C 153.925781 1125.742188 155.570312 1125.394531 157.296875 1125.394531 C 163.800781 1125.394531 169.152344 1130.3125 169.851562 1136.628906 C 173.160156 1133.023438 177.90625 1130.765625 183.183594 1130.765625 C 193.167969 1130.765625 201.265625 1138.863281 201.265625 1148.859375 C 201.265625 1151.523438 200.683594 1154.050781 199.652344 1156.324219 C 200.675781 1156.101562 201.734375 1155.984375 202.820312 1155.984375 C 211.0625 1155.984375 217.746094 1162.671875 217.746094 1170.917969 C 217.746094 1175.476562 215.703125 1179.5625 212.480469 1182.300781 C 214.773438 1183.589844 216.328125 1186.054688 216.328125 1188.875 C 216.328125 1190.324219 215.917969 1191.675781 215.210938 1192.820312 C 231.140625 1194.914062 243.347656 1206.847656 243.347656 1221.246094 " fill-opacity="1" fill-rule="nonzero"/><path fill="rgb(92.939758%, 49.409485%, 58.039856%)" d="M 319.199219 862.605469 C 319.199219 862.605469 318.460938 865.074219 321.074219 867.03125 C 323.6875 868.992188 331.4375 866.863281 330.929688 858.484375 C 330.417969 850.101562 319.199219 862.605469 319.199219 862.605469 " fill-opacity="1" fill-rule="nonzero"/><path fill="rgb(92.939758%, 49.409485%, 58.039856%)" d="M 469.15625 776.644531 L 462.933594 777.144531 L 452.847656 786.945312 C 456.8125 785.226562 460.863281 783.648438 465.183594 782.542969 C 467.226562 779.175781 469.15625 776.644531 469.15625 776.644531 " fill-opacity="1" fill-rule="nonzero"/><path fill="rgb(100%, 58.81958%, 66.268921%)" d="M 452.847656 786.945312 L 446.078125 793.523438 C 446.078125 793.523438 462.8125 802.554688 460.757812 796.4375 C 459.582031 792.949219 462.476562 787.003906 465.183594 782.542969 C 460.863281 783.648438 456.8125 785.226562 452.847656 786.945312 " fill-opacity="1" fill-rule="nonzero"/><path fill="rgb(100%, 58.81958%, 66.268921%)" d="M 467.867188 776.585938 C 468.390625 777.476562 469.234375 778.183594 470.273438 778.734375 C 474.195312 777.519531 477.222656 775.71875 477.054688 773.625 C 476.855469 771.101562 474.484375 768.105469 472.339844 765.875 C 468.699219 769.117188 464.800781 772.175781 467.867188 776.585938 " fill-opacity="1" fill-rule="nonzero"/><path fill="rgb(92.939758%, 49.409485%, 58.039856%)" d="M 467.867188 776.585938 C 464.800781 772.175781 468.699219 769.117188 472.339844 765.875 C 470.507812 763.976562 468.839844 762.628906 468.839844 762.628906 C 453.609375 762.804688 450.09375 778.410156 455.964844 779.972656 C 459.210938 780.832031 465.425781 780.230469 470.273438 778.734375 C 469.234375 778.183594 468.390625 777.476562 467.867188 776.585938 " fill-opacity="1" fill-rule="nonzero"/><path fill="rgb(100%, 58.81958%, 66.268921%)" d="M 537.769531 737.410156 C 537.667969 737.339844 537.566406 737.261719 537.460938 737.195312 C 527.5 731.1875 524.398438 750.082031 526.667969 755.960938 C 528.941406 761.839844 532.671875 757.515625 532.671875 757.515625 C 534.289062 759.582031 536.09375 756.804688 536.09375 756.804688 C 534.382812 764.601562 529.1875 773.15625 524.050781 780.152344 C 527.203125 780.023438 530.261719 781.207031 532.886719 783.15625 C 541.398438 770.078125 544.332031 751.890625 537.769531 737.410156 " fill-opacity="1" fill-rule="nonzero"/><path fill="rgb(92.939758%, 49.409485%, 58.039856%)" d="M 537.769531 737.410156 C 544.332031 751.890625 541.398438 770.078125 532.886719 783.15625 C 533.769531 783.816406 534.605469 784.554688 535.375 785.363281 C 546.441406 765.179688 545.140625 742.449219 537.769531 737.410156 " fill-opacity="1" fill-rule="nonzero"/><path fill="rgb(85.879517%, 29.019165%, 52.938843%)" d="M 338.207031 881.570312 L 336.738281 881.066406 C 338.121094 877.050781 337.558594 871.226562 335.367188 866.898438 C 334.203125 864.601562 332.015625 861.617188 328.207031 860.433594 C 319.992188 857.882812 309.78125 871.726562 309.679688 871.863281 L 308.425781 870.949219 C 308.867188 870.339844 319.394531 856.070312 328.667969 858.949219 C 332.09375 860.011719 334.890625 862.519531 336.75 866.199219 C 339.117188 870.871094 339.71875 877.191406 338.207031 881.570312 " fill-opacity="1" fill-rule="nonzero"/><path fill="rgb(100%, 58.81958%, 66.268921%)" d="M 333.871094 844.367188 C 333.871094 844.367188 331.023438 844.027344 327.738281 846.03125 C 319.429688 851.089844 319.117188 860.808594 319.117188 860.808594 C 324.117188 857.867188 329.546875 858.882812 329.546875 858.882812 C 329.085938 861.355469 333.441406 864.6875 333.441406 864.6875 C 331.40625 867.246094 331.726562 869.972656 332.210938 871.585938 C 337.917969 866.339844 337.617188 858.753906 332.144531 853.019531 C 341.46875 846 351.324219 840.125 361.535156 835.027344 C 359.914062 833.179688 358.628906 831.136719 357.871094 828.851562 C 343.28125 837.546875 333.871094 844.367188 333.871094 844.367188 " fill-opacity="1" fill-rule="nonzero"/><path fill="rgb(92.939758%, 49.409485%, 58.039856%)" d="M 332.210938 871.585938 C 332.472656 872.46875 332.785156 873.023438 332.785156 873.023438 L 338.496094 865.492188 C 339.6875 861.011719 334.867188 853.679688 334.867188 853.679688 C 340.53125 849.089844 351.582031 843.550781 364.535156 837.960938 C 363.449219 837.042969 362.441406 836.066406 361.535156 835.027344 C 351.324219 840.125 341.46875 846 332.144531 853.019531 C 337.617188 858.753906 337.917969 866.339844 332.210938 871.585938 " fill-opacity="1" fill-rule="nonzero"/><path fill="rgb(85.879517%, 29.019165%, 52.938843%)" d="M 361.535156 835.027344 C 362.441406 836.066406 363.449219 837.042969 364.535156 837.960938 C 385.875 828.757812 412.390625 819.414062 428.558594 813.929688 C 428.828125 812.507812 428.996094 811.105469 429.164062 809.699219 C 406.09375 816.996094 383.023438 824.292969 361.535156 835.027344 " fill-opacity="1" fill-rule="nonzero"/><path fill="rgb(85.879517%, 29.019165%, 52.938843%)" d="M 521.011719 795.359375 C 499.859375 809.964844 470.90625 804.789062 444.65625 803.707031 C 441.363281 803.726562 441.503906 806.785156 441.425781 809.644531 C 442.613281 809.257812 443.269531 809.046875 443.269531 809.046875 C 491.503906 817.320312 521.511719 802.652344 521.511719 802.652344 C 527.425781 797.523438 531.976562 791.5625 535.375 785.363281 C 534.605469 784.554688 533.769531 783.816406 532.886719 783.15625 C 529.65625 788.121094 525.632812 792.351562 521.011719 795.359375 " fill-opacity="1" fill-rule="nonzero"/><path fill="rgb(89.7995%, 39.219666%, 60.389709%)" d="M 444.65625 803.707031 C 470.90625 804.789062 499.859375 809.964844 521.011719 795.359375 C 525.632812 792.351562 529.65625 788.121094 532.886719 783.15625 C 530.261719 781.207031 527.203125 780.023438 524.050781 780.152344 C 517.941406 788.46875 511.917969 794.585938 511.917969 794.585938 C 485.457031 800.851562 473.800781 791.183594 453.621094 792.609375 C 420.265625 794.964844 381.992188 814.476562 357.871094 828.851562 C 358.628906 831.136719 359.914062 833.179688 361.535156 835.027344 C 383.023438 824.292969 406.09375 816.996094 429.164062 809.699219 C 428.996094 811.105469 428.828125 812.507812 428.558594 813.929688 C 434.511719 811.90625 439.050781 810.417969 441.425781 809.644531 C 441.503906 806.785156 441.363281 803.726562 444.65625 803.707031 " fill-opacity="1" fill-rule="nonzero"/><path fill="rgb(89.7995%, 39.219666%, 60.389709%)" d="M 337.515625 994.457031 C 333.746094 1001.25 330.0625 1008.894531 326.597656 1017.515625 C 333.929688 1011.46875 341.40625 1005.613281 348.785156 999.691406 C 345.5625 996.691406 341.636719 994.433594 337.515625 994.457031 " fill-opacity="1" fill-rule="nonzero"/><path fill="rgb(100%, 58.81958%, 66.268921%)" d="M 351.261719 973.535156 C 346.703125 979.378906 342.046875 986.300781 337.515625 994.457031 C 341.636719 994.433594 345.5625 996.691406 348.785156 999.691406 C 356.238281 993.714844 363.597656 987.671875 370.625 981.292969 C 365.347656 976.039062 358.535156 972.398438 351.261719 973.535156 " fill-opacity="1" fill-rule="nonzero"/><path fill="rgb(89.7995%, 39.219666%, 60.389709%)" d="M 408.332031 866.972656 C 406.984375 865.722656 405.761719 864.316406 404.714844 862.769531 C 397.503906 862.78125 368.445312 867.398438 386.765625 943.71875 C 386.765625 943.71875 369.832031 949.734375 351.261719 973.535156 C 358.535156 972.398438 365.347656 976.039062 370.625 981.292969 C 380.046875 972.742188 388.871094 963.589844 396.519531 953.183594 C 405.191406 941.160156 411.3125 921.289062 406.058594 909.355469 C 397.976562 893.703125 399.816406 878.585938 408.332031 866.972656 " fill-opacity="1" fill-rule="nonzero"/><path fill="rgb(85.879517%, 29.019165%, 52.938843%)" d="M 406.277344 862.847656 C 406.277344 862.847656 405.695312 862.765625 404.714844 862.769531 C 405.761719 864.316406 406.984375 865.722656 408.332031 866.972656 C 409.570312 865.28125 410.949219 863.664062 412.464844 862.132812 C 409.4375 860.730469 406.277344 862.847656 406.277344 862.847656 " fill-opacity="1" fill-rule="nonzero"/><path fill="rgb(85.879517%, 29.019165%, 52.938843%)" d="M 412.464844 862.132812 C 400.558594 874.195312 396.800781 891.421875 406.058594 909.355469 C 411.3125 921.289062 405.191406 941.160156 396.519531 953.183594 C 388.871094 963.589844 380.046875 972.742188 370.625 981.292969 C 371.238281 981.90625 371.832031 982.539062 372.402344 983.191406 C 385.5 972.109375 397.675781 960.273438 403.03125 950.800781 C 403.03125 950.800781 419.136719 910.546875 417.863281 876.71875 C 417.5 867.027344 415.03125 863.316406 412.464844 862.132812 " fill-opacity="1" fill-rule="nonzero"/><path fill="rgb(85.879517%, 29.019165%, 52.938843%)" d="M 326.597656 1017.515625 C 326.554688 1017.617188 326.515625 1017.714844 326.476562 1017.816406 C 326.476562 1017.816406 336.820312 1010.867188 350.039062 1000.933594 C 349.632812 1000.511719 349.21875 1000.09375 348.785156 999.691406 C 341.40625 1005.613281 333.929688 1011.46875 326.597656 1017.515625 " fill-opacity="1" fill-rule="nonzero"/><path fill="rgb(92.939758%, 49.409485%, 58.039856%)" d="M 370.625 981.292969 C 363.597656 987.671875 356.238281 993.714844 348.785156 999.691406 C 349.21875 1000.09375 349.632812 1000.511719 350.039062 1000.933594 C 357.054688 995.664062 364.878906 989.550781 372.402344 983.191406 C 371.832031 982.539062 371.238281 981.90625 370.625 981.292969 " fill-opacity="1" fill-rule="nonzero"/><path fill="rgb(85.879517%, 29.019165%, 52.938843%)" d="M 434.375 870.945312 C 444.636719 864.003906 450.859375 852.296875 459.667969 842.367188 C 451.007812 847.648438 442.246094 854.292969 433.988281 862.652344 C 433.988281 862.652344 420.234375 866.441406 412.195312 863.34375 C 412.195312 863.34375 410.199219 864.398438 407.671875 866.34375 C 415.15625 873.820312 427.113281 876.246094 434.375 870.945312 " fill-opacity="1" fill-rule="nonzero"/><path fill="rgb(92.939758%, 49.409485%, 58.039856%)" d="M 477.890625 893.765625 C 476.640625 902.839844 476.019531 913.601562 476.53125 926.164062 C 477.976562 926.3125 479.386719 926.332031 480.769531 926.246094 C 481.515625 915.226562 482.714844 904.273438 484.425781 893.410156 C 482.234375 893.746094 480.046875 893.871094 477.890625 893.765625 " fill-opacity="1" fill-rule="nonzero"/><path fill="rgb(85.879517%, 29.019165%, 52.938843%)" d="M 479.371094 954.71875 C 479.371094 954.71875 479.546875 954.277344 479.859375 953.460938 C 479.847656 944.347656 480.160156 935.273438 480.769531 926.246094 C 479.386719 926.332031 477.976562 926.3125 476.53125 926.164062 C 476.882812 934.808594 477.769531 944.300781 479.371094 954.71875 " fill-opacity="1" fill-rule="nonzero"/><path fill="rgb(85.879517%, 29.019165%, 52.938843%)" d="M 441.503906 893.859375 C 457.308594 885.90625 475.386719 871.855469 492.234375 852.878906 C 492.234375 852.878906 481.890625 864.851562 477.890625 893.765625 C 480.046875 893.871094 482.234375 893.746094 484.425781 893.410156 C 487.035156 876.820312 490.789062 860.425781 495.796875 844.292969 C 480.496094 861.847656 462.480469 881.199219 441.503906 893.859375 " fill-opacity="1" fill-rule="nonzero"/><path fill="rgb(89.7995%, 39.219666%, 60.389709%)" d="M 480.769531 926.246094 C 480.160156 935.273438 479.847656 944.347656 479.859375 953.460938 C 481.300781 949.753906 485.78125 938.113281 491.3125 922.925781 C 488.132812 924.863281 484.582031 926 480.769531 926.246094 " fill-opacity="1" fill-rule="nonzero"/><path fill="rgb(100%, 58.81958%, 66.268921%)" d="M 484.425781 893.410156 C 482.714844 904.273438 481.515625 915.226562 480.769531 926.246094 C 484.582031 926 488.132812 924.863281 491.3125 922.925781 C 495.605469 911.136719 500.523438 897.214844 505.136719 883.207031 C 499.589844 888.5 492.042969 892.226562 484.425781 893.410156 " fill-opacity="1" fill-rule="nonzero"/><path fill="rgb(89.7995%, 39.219666%, 60.389709%)" d="M 459.667969 842.367188 C 450.859375 852.296875 444.636719 864.003906 434.375 870.945312 C 427.113281 876.246094 415.15625 873.820312 407.671875 866.34375 C 401.570312 871.042969 392.351562 880.972656 400.511719 894.0625 C 406.8125 904.164062 422.511719 903.414062 441.503906 893.859375 C 462.480469 881.199219 480.496094 861.847656 495.796875 844.292969 C 490.789062 860.425781 487.035156 876.820312 484.425781 893.410156 C 492.042969 892.226562 499.589844 888.5 505.136719 883.207031 C 512.824219 859.859375 519.652344 836.285156 521.28125 822.003906 C 521.28125 822.003906 491.128906 823.183594 459.667969 842.367188 " fill-opacity="1" fill-rule="nonzero"/><path fill="rgb(85.879517%, 29.019165%, 52.938843%)" d="M 444.070312 823.359375 C 447.710938 833.789062 443.4375 843.46875 440.539062 853.34375 C 447.238281 840.648438 447.578125 826.710938 447.578125 826.710938 C 447.578125 826.710938 461.023438 826.53125 466.355469 820.671875 C 467.34375 819.578125 467.683594 818.492188 467.582031 817.433594 C 461.394531 823.957031 453.144531 823.929688 444.070312 823.359375 " fill-opacity="1" fill-rule="nonzero"/><path fill="rgb(85.879517%, 29.019165%, 52.938843%)" d="M 408.308594 864.3125 C 410.160156 865.566406 411.917969 866.507812 413.582031 867.195312 C 416.214844 862.554688 418.140625 857.535156 419.441406 852.640625 C 416.382812 857.292969 412.519531 861.414062 408.308594 864.3125 " fill-opacity="1" fill-rule="nonzero"/><path fill="rgb(89.7995%, 39.219666%, 60.389709%)" d="M 467.582031 817.433594 C 467.128906 812.808594 458.167969 808.871094 458.167969 808.871094 L 458.753906 802.800781 C 458.753906 802.800781 417.199219 796.714844 419.066406 814.382812 C 420.929688 832.046875 406.277344 862.847656 406.277344 862.847656 C 406.964844 863.382812 407.640625 863.859375 408.308594 864.3125 C 412.519531 861.414062 416.382812 857.292969 419.441406 852.640625 C 418.140625 857.535156 416.214844 862.554688 413.582031 867.195312 C 424.636719 871.773438 431.34375 865.203125 431.34375 865.203125 C 435.289062 861.78125 438.273438 857.632812 440.539062 853.34375 C 443.4375 843.46875 447.710938 833.789062 444.070312 823.359375 C 453.144531 823.929688 461.394531 823.957031 467.582031 817.433594 " fill-opacity="1" fill-rule="nonzero"/><path fill="rgb(24.708557%, 19.60907%, 47.839355%)" d="M 464.117188 768.5625 C 464.117188 768.5625 487.746094 760.105469 480.527344 744.339844 C 473.304688 728.578125 453.140625 743.261719 450.609375 757.871094 C 450.609375 757.871094 431.710938 755.628906 429.328125 775.761719 C 429.328125 775.761719 364.324219 792.175781 389.203125 824.324219 C 414.078125 856.472656 458.355469 804.023438 463.632812 773.894531 C 463.632812 773.894531 461.179688 773.535156 461.613281 769.878906 C 462.046875 766.214844 464.117188 768.5625 464.117188 768.5625 " fill-opacity="1" fill-rule="nonzero"/><path fill="rgb(89.7995%, 39.219666%, 60.389709%)" d="M 291.132812 863.960938 L 358.421875 887.425781 L 343.769531 929.730469 L 277.445312 906.15625 L 291.132812 863.960938 " fill-opacity="1" fill-rule="nonzero"/><path fill="rgb(85.879517%, 29.019165%, 52.938843%)" d="M 291.132812 863.960938 L 271.066406 900.230469 L 277.445312 906.15625 Z M 291.132812 863.960938 " fill-opacity="1" fill-rule="nonzero"/></svg>